<?xml version="1.0" standalone="no"?>
<!DOCTYPE svg PUBLIC "-//W3C//DTD SVG 20010904//EN"
 "http://www.w3.org/TR/2001/REC-SVG-20010904/DTD/svg10.dtd">
<svg version="1.0" xmlns="http://www.w3.org/2000/svg"
 width="406.000000pt" height="194.000000pt" viewBox="0 0 406.000000 194.000000"
 preserveAspectRatio="xMidYMid meet">

<g transform="translate(0.000000,194.000000) scale(0.100000,-0.100000)"
fill="#ffd700" stroke="none">
<path d="M1810 1449 c-286 -25 -487 -95 -617 -214 -32 -29 -56 -55 -53 -58 10
-11 183 40 192 57 35 63 170 136 304 166 91 20 218 27 212 11 -1 -4 -75 -83
-163 -175 -88 -92 -161 -173 -163 -181 -2 -7 -25 -28 -51 -45 -27 -17 -83 -65
-125 -108 -66 -68 -82 -79 -129 -90 -29 -6 -79 -12 -112 -12 -45 0 -79 -8
-137 -32 -43 -18 -78 -37 -78 -41 0 -5 65 -7 145 -5 l144 3 -52 -54 c-66 -68
-140 -123 -195 -144 -23 -9 -81 -20 -129 -24 -71 -5 -99 -12 -157 -42 l-71
-36 425 -6 c234 -3 453 -2 487 2 115 13 330 85 312 104 -3 2 -37 -3 -75 -11
-52 -13 -142 -18 -373 -21 -167 -3 -328 -2 -358 2 l-55 7 88 29 c114 39 187
78 268 145 37 30 68 49 71 43 14 -21 421 14 585 52 314 72 502 160 646 304 80
80 106 116 131 185 40 111 -28 167 -230 189 -108 12 -556 12 -687 0z m615 -44
c59 -21 93 -46 112 -82 17 -34 14 -56 -21 -128 -73 -149 -338 -336 -562 -396
-66 -18 -118 -23 -321 -28 l-242 -6 37 40 c160 171 262 264 327 296 65 32 76
34 168 34 92 0 100 -2 118 -23 14 -18 16 -29 9 -42 -33 -63 16 -51 84 19 l57
60 -52 15 c-79 24 -218 20 -334 -10 -26 -6 -18 5 62 87 50 52 110 116 134 142
l44 48 165 -4 c124 -3 177 -8 215 -22z m-670 -265 c-11 -5 -27 -9 -35 -9 -9 0
-8 4 5 9 11 5 27 9 35 9 9 0 8 -4 -5 -9z m-90 -30 c-27 -12 -43 -12 -25 0 8 5
22 9 30 9 10 0 8 -3 -5 -9z m-80 -30 c-3 -5 -12 -10 -18 -10 -7 0 -6 4 3 10
19 12 23 12 15 0z m-380 -330 c-3 -5 -11 -10 -16 -10 -6 0 -7 5 -4 10 3 6 11
10 16 10 6 0 7 -4 4 -10z"/>
</g>
</svg>
