<?xml version="1.0" standalone="no"?>
<!DOCTYPE svg PUBLIC "-//W3C//DTD SVG 20010904//EN"
 "http://www.w3.org/TR/2001/REC-SVG-20010904/DTD/svg10.dtd">
<svg version="1.0" xmlns="http://www.w3.org/2000/svg"
 width="512.000000pt" height="512.000000pt" viewBox="0 0 512.000000 512.000000"
 preserveAspectRatio="xMidYMid meet">

<g transform="translate(0.000000,512.000000) scale(0.100000,-0.100000)"
fill="#000000" stroke="none">
<path d="M2325 5109 c-598 -56 -1158 -321 -1582 -750 -207 -209 -342 -398
-472 -660 -361 -725 -362 -1551 0 -2278 372 -750 1076 -1262 1914 -1393 201
-31 549 -31 750 0 456 71 882 258 1230 539 285 230 521 525 684 854 125 252
199 484 243 764 31 201 31 549 0 750 -44 280 -118 513 -243 764 -130 262 -265
451 -472 660 -209 211 -411 357 -678 490 -430 214 -903 304 -1374 260z m-248
-1305 c64 -31 116 -90 143 -161 20 -53 20 -77 20 -1083 0 -1024 0 -1030 -21
-1086 -43 -115 -147 -188 -268 -188 -36 0 -83 5 -104 13 -63 22 -132 84 -163
148 l-29 58 -3 1034 c-3 1136 -5 1093 57 1177 86 116 237 152 368 88z m1219 7
c55 -25 120 -91 148 -150 l21 -46 0 -1055 0 -1055 -29 -58 c-31 -64 -100 -126
-163 -148 -21 -8 -68 -13 -104 -13 -121 0 -225 73 -268 188 -21 56 -21 62 -21
1086 0 992 1 1032 19 1080 63 165 239 241 397 171z"/>
</g>
</svg>
