<?xml version="1.0" standalone="no"?>
<!DOCTYPE svg PUBLIC "-//W3C//DTD SVG 20010904//EN"
 "http://www.w3.org/TR/2001/REC-SVG-20010904/DTD/svg10.dtd">
<svg version="1.0" xmlns="http://www.w3.org/2000/svg"
 width="512.000000pt" height="512.000000pt" viewBox="0 0 512.000000 512.000000"
 preserveAspectRatio="xMidYMid meet">

<g transform="translate(0.000000,512.000000) scale(0.100000,-0.100000)"
fill="#000000" stroke="none">
<path d="M3560 4408 c-25 -13 -55 -38 -67 -57 l-23 -34 0 -684 0 -684 -63 53
c-182 154 -1476 1168 -1525 1195 -31 18 -84 39 -117 47 -76 20 -214 20 -290 1
-185 -49 -340 -205 -390 -395 -22 -82 -22 -2498 0 -2580 50 -190 205 -346 390
-395 76 -19 214 -19 290 1 33 8 86 29 117 47 49 27 1343 1041 1525 1195 l63
53 0 -684 0 -684 23 -34 c32 -49 105 -83 158 -74 53 9 115 64 129 113 13 50
14 3453 0 3502 -17 62 -95 120 -160 120 -9 0 -36 -10 -60 -22z"/>
</g>
</svg>
