<?xml version="1.0" standalone="no"?>
<!DOCTYPE svg PUBLIC "-//W3C//DTD SVG 20010904//EN"
 "http://www.w3.org/TR/2001/REC-SVG-20010904/DTD/svg10.dtd">
<svg version="1.0" xmlns="http://www.w3.org/2000/svg"
 width="512.000000pt" height="512.000000pt" viewBox="0 0 512.000000 512.000000"
 preserveAspectRatio="xMidYMid meet">

<g transform="translate(0.000000,512.000000) scale(0.100000,-0.100000)"
fill="#000000" stroke="none">
<path d="M1446 4420 c-41 -13 -94 -68 -106 -110 -14 -49 -13 -3452 0 -3502 14
-49 76 -104 129 -113 53 -9 126 25 158 74 l23 34 0 685 0 686 33 -31 c75 -71
1524 -1206 1568 -1229 107 -54 272 -70 394 -39 185 49 340 205 390 395 22 82
22 2498 0 2580 -50 190 -205 346 -390 395 -122 31 -287 15 -394 -39 -44 -23
-1493 -1158 -1568 -1229 l-33 -31 0 686 0 685 -23 34 c-23 36 -97 80 -132 78
-11 0 -33 -5 -49 -9z"/>
</g>
</svg>
