<?xml version="1.0" standalone="no"?>
<!DOCTYPE svg PUBLIC "-//W3C//DTD SVG 20010904//EN"
 "http://www.w3.org/TR/2001/REC-SVG-20010904/DTD/svg10.dtd">
<svg version="1.0" xmlns="http://www.w3.org/2000/svg"
 width="512.000000pt" height="512.000000pt" viewBox="0 0 512.000000 512.000000"
 preserveAspectRatio="xMidYMid meet">

<g transform="translate(0.000000,512.000000) scale(0.100000,-0.100000)"
fill="#000000" stroke="none">
<path d="M3402 5099 c-83 -42 -117 -151 -72 -239 16 -31 39 -50 117 -96 221
-129 395 -264 538 -416 356 -378 583 -850 667 -1389 18 -121 22 -185 22 -399
0 -214 -4 -278 -22 -399 -60 -380 -194 -739 -390 -1036 -108 -165 -186 -261
-321 -395 -136 -136 -281 -247 -461 -354 -108 -64 -134 -84 -150 -116 -60
-118 24 -260 153 -260 44 0 162 59 302 151 604 396 1043 1068 1189 1818 171
874 -47 1781 -590 2455 -212 264 -504 509 -771 648 -106 55 -145 60 -211 27z"/>
<path d="M1485 3956 l-580 -626 -407 0 -408 0 0 -770 0 -770 408 0 407 0 580
-626 580 -627 3 1012 c1 556 1 1466 0 2022 l-3 1012 -580 -627z"/>
<path d="M3005 4357 c-73 -41 -106 -119 -85 -199 16 -56 57 -93 176 -156 667
-353 981 -1228 719 -2009 -131 -390 -394 -705 -747 -893 -106 -56 -132 -81
-148 -141 -22 -80 15 -159 90 -197 67 -34 104 -29 217 27 623 313 1033 1016
1033 1771 0 582 -248 1151 -661 1517 -169 150 -429 303 -513 303 -24 0 -58
-10 -81 -23z"/>
<path d="M2615 3616 c-65 -28 -114 -121 -100 -189 9 -42 40 -91 69 -110 12 -9
57 -29 99 -45 178 -69 322 -218 396 -411 42 -109 55 -182 55 -301 0 -120 -13
-192 -56 -303 -75 -197 -228 -350 -417 -418 -106 -38 -162 -116 -145 -204 21
-115 131 -171 255 -130 324 106 586 400 680 763 130 505 -99 1057 -534 1283
-145 75 -234 95 -302 65z"/>
</g>
</svg>
